<svg width="65" height="65" viewBox="0 0 65 65" fill="none" xmlns="http://www.w3.org/2000/svg">
<path d="M32.5 5.41666C36.0566 5.41666 39.5784 6.11719 42.8643 7.47825C46.1502 8.83932 49.1359 10.8343 51.6508 13.3492C54.1657 15.8641 56.1607 18.8497 57.5217 22.1356C58.8828 25.4216 59.5833 28.9434 59.5833 32.5C59.5833 39.6829 56.7299 46.5717 51.6508 51.6508C46.5717 56.7299 39.6829 59.5833 32.5 59.5833C28.9434 59.5833 25.4216 58.8828 22.1357 57.5217C18.8498 56.1607 15.8641 54.1657 13.3492 51.6508C8.27008 46.5717 5.41667 39.6829 5.41667 32.5C5.41667 25.317 8.27008 18.4283 13.3492 13.3492C18.4283 8.27007 25.3171 5.41666 32.5 5.41666M32.5 10.8333C21.45 10.8333 12.3229 19.0937 10.9958 29.7917H22.0188C23.2104 25.1062 27.4625 21.6667 32.5 21.6667C37.5375 21.6667 41.7896 25.1062 42.9813 29.7917H54.0042C52.6771 19.0937 43.55 10.8333 32.5 10.8333ZM32.5 54.1667C43.55 54.1667 52.6771 45.9062 54.0042 35.2083H42.9813C41.7896 39.8937 37.5375 43.3333 32.5 43.3333C27.4625 43.3333 23.2104 39.8937 22.0188 35.2083H10.9958C12.3229 45.9062 21.45 54.1667 32.5 54.1667ZM32.5 27.0833C31.0634 27.0833 29.6857 27.654 28.6698 28.6698C27.654 29.6857 27.0833 31.0634 27.0833 32.5C27.0833 33.9366 27.654 35.3143 28.6698 36.3302C29.6857 37.346 31.0634 37.9167 32.5 37.9167C33.9366 37.9167 35.3143 37.346 36.3302 36.3302C37.346 35.3143 37.9167 33.9366 37.9167 32.5C37.9167 31.0634 37.346 29.6857 36.3302 28.6698C35.3143 27.654 33.9366 27.0833 32.5 27.0833Z" fill="#919191"/>
</svg>
